#!OML:ASF E:\Steps\Project 1\Capture day 1\Session 2\Subject.ASF
:FULLY-SPECIFIED
:DEGREES
504
root 9.36499 16.2597 1.13075 -159.508 1.36892 177.008
lowerback -19.4777 0.150131 -6.82579
upperback 3.22129 2.26692 -1.83084
thorax 14.5387 0.601478 2.52575
lowerneck -2.19377 -1.13041 -1.57552
upperneck 19.5443 -3.45257 3.40254
head 6.36373 -2.05318 1.07945
rclavicle 7.15625e-015 5.32743e-014
rhumerus -26.7846 -5.61916 -84.8712
rradius 48.4437
rwrist -6.65373
rhand -4.15184 -58.8702
rfingers 7.12502
rthumb 21.6081 -87.6846
lclavicle 7.15625e-015 5.32743e-014
lhumerus -35.5598 16.0205 70.5696
lradius 16.2236
lwrist -13.8271
lhand -19.8073 -13.1069
lfingers 7.12502
lthumb 6.52585 16.7725
rfemur -13.3476 9.19757 20.5406
rtibia 10.8353
rfoot -22.5538 -5.96556
rtoes -30.4904
lfemur -70.772 -3.32884 -20.7244
ltibia 58.0038
lfoot -5.27596 0.194476
ltoes -25.6314
505
root 9.35265 16.2563 1.03475 -159.326 1.45526 176.922
lowerback -19.5436 0.206812 -6.94388
upperback 3.10106 2.40266 -1.97312
thorax 14.4266 0.672891 2.47535
lowerneck -2.17842 -1.1556 -1.33206
upperneck 19.6153 -3.47119 3.14791
head 6.37689 -2.06545 0.956003
rclavicle -8.54774e-015 5.52621e-014
rhumerus -27.062 -5.43049 -85.1033
rradius 48.7083
rwrist -6.79855
rhand -4.35376 -58.3031
rfingers 7.12502
rthumb 21.4142 -87.1396
lclavicle -8.54774e-015 5.52621e-014
lhumerus -35.782 15.8359 70.461
lradius 16.6149
lwrist -13.782
lhand -19.8363 -13.2316
lfingers 7.12502
lthumb 6.49788 16.6487
rfemur -13.1476 9.35468 20.4172
rtibia 10.7937
rfoot -22.4421 -6.13243
rtoes -29.956
lfemur -70.1128 -3.5337 -20.7438
ltibia 57.3391
lfoot -4.90693 0.0120947
ltoes -22.467
506
root 9.33889 16.2524 0.940075 -159.023 1.59618 176.911
lowerback -19.7857 0.25421 -6.98012
upperback 3.00193 2.52227 -2.10832
thorax 14.4491 0.737333 2.38625
lowerneck -2.14395 -1.10021 -1.17145
upperneck 19.4974 -3.37607 3.09285
head 6.32793 -2.00797 0.919046
rclavicle 7.7526e-015 2.18663e-014
rhumerus -27.2999 -5.12823 -85.3918
rradius 49.0203
rwrist -6.73339
rhand -4.56279 -58.2945
rfingers 7.12502
rthumb 21.2134 -87.1537
lclavicle 7.7526e-015 2.18663e-014
lhumerus -35.7254 15.8202 70.384
lradius 16.7976
lwrist -13.761
lhand -20.0653 -13.4843
lfingers 7.12502
lthumb 6.27676 16.4027
rfemur -13.2297 9.46424 20.3321
rtibia 11.0099
rfoot -22.5063 -6.1339
rtoes -29.5229
lfemur -69.6103 -3.66219 -20.7389
ltibia 56.786
lfoot -5.42653 -0.149657
ltoes -20.3319
507
root 9.32747 16.2504 0.847723 -158.693 1.7824 176.904
lowerback -19.9485 0.309554 -7.09387
upperback 2.78095 2.65416 -2.21697
thorax 14.2738 0.810245 2.37334
lowerneck -2.46439 -1.11606 -1.82893
upperneck 20.1693 -3.57322 3.77682
head 6.62406 -2.11696 1.22578
rclavicle -2.78299e-014 4.77083e-014
rhumerus -27.6979 -4.74675 -85.5752
rradius 49.2497
rwrist -6.83206
rhand -5.17386 -57.6563
rfingers 7.12502
rthumb 20.6264 -86.5804
lclavicle -2.78299e-014 4.77083e-014
lhumerus -35.7382 15.4416 70.4403
lradius 16.9729
lwrist -13.4093
lhand -20.2468 -13.6058
lfingers 7.12502
lthumb 6.10157 16.2863
rfemur -13.375 9.41088 20.2471
rtibia 11.3101
rfoot -22.5257 -6.22362
rtoes -30.2141
lfemur -69.2249 -3.57985 -20.9293
ltibia 56.3948
lfoot -6.56199 0.127231
ltoes -21.8283
